<?xml version="1.0" encoding="utf-8"?>
<!-- Generator: Adobe Illustrator 21.0.0, SVG Export Plug-In . SVG Version: 6.00 Build 0)  -->
<svg version="1.1" id="Bold" xmlns="http://www.w3.org/2000/svg" xmlns:xlink="http://www.w3.org/1999/xlink" x="0px" y="0px"
	 viewBox="0 0 512 512" style="enable-background:new 0 0 512 512;" xml:space="preserve">
<style type="text/css">
	.st0{fill:#FFFFFF;}
</style>
<path class="st0" d="M74.7,46.1v433.8c0,20.3,11.9,27.7,17.9,30.1c6.1,2.5,22.5,4.6,32.4-7.1C252.1,353.5,254.2,351,254.2,351
	c3.1-3.4,3.3-3.1,6.7-3.1h82.2c34.6,0,40-25.2,43.7-39.7l47.9-243C443,22.8,432.5,0,393.1,0H123.8C86.9,0,74.7,28.3,74.7,46.1
	L74.7,46.1z M131.6,72.9c0-7.7,6.7-16.6,16.4-16.6h215.8c8.1,0,15.4,7.7,13.3,17.5l-0.1,0l-11.2,59.7c-1.2,6.5-9.4,13.2-16.6,13.2
	H244.3c-11.8,0-20.3,8.3-20.3,20.3v13c0,12,8.5,20.6,20.3,20.6h89.1c8.2,0,16.4,9.2,14.6,18.2c-1.8,8.9-10.3,53.8-11.2,58.8
	c-0.9,4.9-6.7,13.5-16.7,13.5h-72.4c-13.3,0-16.9,1.8-26.1,12.6c0,0-8.8,11.4-88.2,108.3c-0.9,0.9-1.8,0.6-1.8-0.3L131.6,72.9
	L131.6,72.9z"/>
</svg>
